<svg width="42" height="41" viewBox="0 0 42 41" fill="none" xmlns="http://www.w3.org/2000/svg">
<path d="M0 2.88843V37.6744C0 39.2732 1.32726 40.5688 2.96504 40.5688H38.5881C40.2259 40.5688 41.5592 39.2732 41.5592 37.6685V2.88249C41.5592 1.28969 40.238 0 38.6064 0H2.95895C1.32118 0 0 1.28969 0 2.88843ZM17.7415 34.6255C17.7415 35.6656 16.877 36.5095 15.8115 36.5095H6.94074C5.8631 36.5095 4.99246 35.6597 4.99246 34.6077V20.8312C4.99246 20.5162 5.0777 20.2012 5.24209 19.9278L13.7232 5.58668C14.2346 4.71896 15.1844 4.18407 16.2072 4.18407H25.6381C26.1496 4.18407 26.6427 4.32076 27.075 4.55849L20.9257 14.9592L17.7415 20.3438V34.6255ZM36.2989 21.3007L31.0568 30.1681C30.7037 30.7624 30.0583 31.1249 29.3581 31.1249H21.1084C19.6167 31.1249 18.6791 29.544 19.428 28.284L24.1221 20.3498L21.5224 15.9577L27.8726 5.22414C27.97 5.33706 28.0613 5.46187 28.1344 5.59262L36.2989 19.3989C36.6459 19.9872 36.6459 20.7183 36.2989 21.3066V21.3007Z" fill="white"/>
</svg>
