<svg width="217" height="41" viewBox="0 0 217 41" fill="none" xmlns="http://www.w3.org/2000/svg">
<path d="M69.3413 23.2971H56.6709V37.7927H60.0602V32.1466H69.3352C70.5135 32.1466 71.3639 31.9267 71.8923 31.481C72.4208 31.0352 72.682 30.328 72.682 29.3473V26.1083C72.682 25.1217 72.4208 24.4085 71.8923 23.9627C71.3639 23.517 70.5135 23.2971 69.3352 23.2971H69.3413ZM69.3656 28.4975C69.3656 28.9254 69.2562 29.2285 69.0376 29.3949C68.8189 29.5613 68.4119 29.6505 67.8106 29.6505H60.0602V25.8111H67.8106C68.4059 25.8111 68.8189 25.8943 69.0376 26.0667C69.2562 26.2331 69.3656 26.5302 69.3656 26.9522V28.5034V28.4975Z" fill="white"/>
<path d="M171.007 23.2971H167.563V37.7927H182.123V35.0648H171.007V23.2971Z" fill="white"/>
<path d="M187.207 31.4691H194.046V29.0026H187.207V25.7636H198.924V23.2971H183.757V37.7927H199.063V35.0648H187.207V31.4691Z" fill="white"/>
<path d="M216.241 29.6742C215.73 29.1928 214.753 28.9491 213.307 28.9491H204.074V25.8348H215.615V23.3208C215.415 23.3089 215.208 23.303 214.983 23.303H204.73C203.291 23.303 202.319 23.5467 201.815 24.0281C201.311 24.5095 201.056 25.4129 201.056 26.7323V28.337C201.056 29.6504 201.311 30.5538 201.815 31.0411C202.319 31.5285 203.291 31.7662 204.73 31.7662H213.963V35.0707H201.056V37.7986H213.301C214.746 37.7986 215.724 37.555 216.235 37.0736C216.745 36.5922 217 35.6888 217 34.3694V32.3784C217 31.059 216.745 30.1615 216.235 29.6742H216.241Z" fill="white"/>
<path d="M162.468 30.3161C163.288 30.2151 163.919 29.9595 164.357 29.5435C164.794 29.1274 165.013 28.5747 165.013 27.8794V26.1083C165.013 25.1276 164.752 24.4144 164.229 23.9687C163.707 23.5229 162.863 23.2971 161.69 23.2971H148.996V37.7927H160.767C162.231 37.7927 163.324 37.561 164.047 37.0914C164.77 36.6219 165.128 35.9147 165.128 34.9519V33.1035C165.128 32.3249 164.897 31.6949 164.436 31.2135C163.974 30.7321 163.318 30.429 162.468 30.322V30.3161ZM152.391 25.6566H160.251C160.846 25.6566 161.259 25.7338 161.49 25.8943C161.721 26.0548 161.836 26.3222 161.836 26.6966V28.0695C161.836 28.4559 161.721 28.7233 161.49 28.8778C161.259 29.0324 160.846 29.1096 160.251 29.1096H152.391V25.6566ZM161.921 33.8821C161.921 34.3694 161.806 34.7022 161.575 34.8984C161.344 35.0886 160.907 35.1836 160.251 35.1836H152.391V31.4929H160.251C160.907 31.4929 161.344 31.588 161.575 31.7722C161.806 31.9624 161.921 32.2952 161.921 32.7826V33.8821Z" fill="white"/>
<path d="M94.6451 31.4691H101.484V29.0026H94.6451V25.7636H106.362V23.2971H91.2012V37.7927H106.502V35.0648H94.6451V31.4691Z" fill="white"/>
<path d="M117.071 31.8376H122.701V35.0589H111.938V25.8825H125.289V23.2971C125.18 23.2971 125.076 23.2912 124.967 23.2912H112.163C110.724 23.2912 109.752 23.5349 109.248 24.0163C108.743 24.4977 108.488 25.401 108.488 26.7205V34.3576C108.488 35.6829 108.743 36.5863 109.248 37.0677C109.752 37.5491 110.724 37.7868 112.163 37.7868H122.38C123.819 37.7868 124.791 37.5491 125.295 37.0677C125.799 36.5863 126.054 35.6829 126.054 34.3576V29.3652H117.071V31.8317V31.8376Z" fill="white"/>
<path d="M135.359 23.2971L126.977 37.7927H130.409L132.134 34.625H141.524L143.304 37.7927H147.173L138.682 23.2971H135.359ZM133.604 32.004L136.896 26.1083L140.091 32.004H133.604Z" fill="white"/>
<path d="M78.3849 23.2971H74.9409V37.7927H89.5003V35.0648H78.3849V23.2971Z" fill="white"/>
<path d="M65.2471 11.3155H70.8777V14.5368H60.1146V5.36034H73.4652V2.77501C73.3559 2.77501 73.2526 2.76907 73.1433 2.76907H60.3393C58.8998 2.76907 57.9279 3.01274 57.4238 3.49415C56.9197 3.97555 56.6646 4.87893 56.6646 6.19834V13.8354C56.6646 15.1608 56.9197 16.0642 57.4238 16.5456C57.9279 17.027 58.8998 17.2647 60.3393 17.2647H70.5558C71.9953 17.2647 72.9672 17.027 73.4713 16.5456C73.9755 16.0642 74.2306 15.1608 74.2306 13.8354V8.8431H65.2471V11.3096V11.3155Z" fill="white"/>
<path d="M188.161 14.5427H176.31V10.947H183.144V8.48059H176.31V5.2415H188.021V2.77504H172.86V17.2707H188.161V14.5427Z" fill="white"/>
<path d="M95.5686 17.2707L87.0772 2.77504H83.7547L75.3726 17.2707H78.8044L80.5294 14.1029H89.9198L91.6995 17.2707H95.5686ZM82.0054 11.4819L85.2975 5.58621L88.4924 11.4819H82.0054Z" fill="white"/>
<path d="M129.753 8.81934V5.58025C129.753 4.59367 129.492 3.88047 128.963 3.43473C128.435 2.98898 127.585 2.76908 126.406 2.76908H113.736V17.2647H117.125V11.6127H126.4C127.578 11.6127 128.429 11.3928 128.957 10.947C129.486 10.5013 129.747 9.79403 129.747 8.81339L129.753 8.81934ZM126.431 7.96945C126.431 8.39736 126.321 8.70047 126.103 8.86688C125.884 9.03329 125.477 9.12244 124.876 9.12244H117.125V5.28309H124.876C125.477 5.28309 125.884 5.36629 126.103 5.53865C126.321 5.70506 126.431 6.00222 126.431 6.4242V7.97539V7.96945Z" fill="white"/>
<path d="M112.096 14.5427H100.981V2.77504H97.5366V17.2707H112.096V14.5427Z" fill="white"/>
<path d="M156.108 9.43746C156.108 9.14623 156.096 8.80153 156.072 8.40333C156.047 8.00513 156.011 7.58315 155.969 7.13741C156.139 7.32759 156.321 7.51778 156.515 7.70202C156.71 7.88626 156.94 8.08833 157.202 8.32012L168.074 17.2766H170.431V2.77504H167.333V10.3824C167.333 10.5667 167.339 10.8282 167.363 11.161C167.382 11.4998 167.418 12.0763 167.473 12.8905C167.248 12.6231 166.999 12.3675 166.732 12.1179C166.458 11.8683 166.149 11.6008 165.79 11.3155L155.361 2.77504H153.004V17.2707H156.102V9.4434L156.108 9.43746Z" fill="white"/>
<path d="M135.93 17.2707H146.833C148.273 17.2707 149.244 17.033 149.748 16.5516C150.253 16.0702 150.508 15.1668 150.508 13.8414V6.20431C150.508 4.88491 150.253 3.98747 149.748 3.50012C149.244 3.01277 148.273 2.77504 146.833 2.77504H135.93C134.491 2.77504 133.519 3.01872 133.015 3.50012C132.51 3.98747 132.255 4.88491 132.255 6.20431V13.8414C132.255 15.1668 132.51 16.0702 133.015 16.5516C133.519 17.033 134.491 17.2707 135.93 17.2707ZM135.705 5.36631H147.07V14.5427H135.705V5.36631Z" fill="white"/>
<path d="M194.04 17.2707H202.343C203.789 17.2707 204.773 17.027 205.277 16.5456C205.781 16.0642 206.042 15.1608 206.042 13.8414V11.8504C206.042 10.531 205.787 9.63358 205.277 9.14623C204.767 8.66483 203.789 8.42115 202.343 8.42115H193.111V5.30688H204.651V2.79287C204.451 2.78099 202.398 2.77504 202.179 2.77504H193.773C192.333 2.77504 191.362 3.01872 190.857 3.50012C190.353 3.98153 190.098 4.88491 190.098 6.20431V7.809C190.098 9.12246 190.353 10.0258 190.857 10.5132C191.362 11.0005 192.333 11.2383 193.773 11.2383H203.005V14.5427H190.098V17.2707H194.046H194.04Z" fill="white"/>
<path d="M0 2.88843V37.6744C0 39.2732 1.32726 40.5688 2.96504 40.5688H38.5881C40.2259 40.5688 41.5592 39.2732 41.5592 37.6685V2.88249C41.5592 1.28969 40.238 0 38.6064 0H2.95895C1.32118 0 0 1.28969 0 2.88843ZM17.7415 34.6255C17.7415 35.6656 16.877 36.5095 15.8115 36.5095H6.94074C5.8631 36.5095 4.99246 35.6597 4.99246 34.6077V20.8312C4.99246 20.5162 5.0777 20.2012 5.24209 19.9278L13.7232 5.58668C14.2346 4.71896 15.1844 4.18407 16.2072 4.18407H25.6381C26.1496 4.18407 26.6427 4.32076 27.075 4.55849L20.9257 14.9592L17.7415 20.3438V34.6255ZM36.2989 21.3007L31.0568 30.1681C30.7037 30.7624 30.0583 31.1249 29.3581 31.1249H21.1084C19.6167 31.1249 18.6791 29.544 19.428 28.284L24.1221 20.3498L21.5224 15.9577L27.8726 5.22414C27.97 5.33706 28.0613 5.46187 28.1344 5.59262L36.2989 19.3989C36.6459 19.9872 36.6459 20.7183 36.2989 21.3066V21.3007Z" fill="white"/>
</svg>
